<mxfile host="app.diagrams.net" agent="Mozilla/5.0 (Windows NT 10.0; Win64; x64) AppleWebKit/537.36 (KHTML, like Gecko) Chrome/135.0.0.0 Safari/537.36" version="26.2.14">
  <diagram name="Sayfa -1" id="nsTz3bPisz_LrOSdJjXA">
    <mxGraphModel grid="1" page="1" gridSize="10" guides="1" tooltips="1" connect="1" arrows="1" fold="1" pageScale="1" pageWidth="827" pageHeight="1169" math="0" shadow="0">
      <root>
        <mxCell id="0" />
        <mxCell id="1" parent="0" />
        <mxCell id="Up-AibJq6kQblU-nqdXv-1" value="" style="rounded=0;whiteSpace=wrap;html=1;" vertex="1" parent="1">
          <mxGeometry x="150" y="70" width="480" height="600" as="geometry" />
        </mxCell>
        <mxCell id="Up-AibJq6kQblU-nqdXv-3" value="&lt;font style=&quot;font-size: 18px;&quot;&gt;&lt;b&gt;AGE :&lt;/b&gt;&lt;/font&gt;" style="text;html=1;align=center;verticalAlign=middle;whiteSpace=wrap;rounded=0;" vertex="1" parent="1">
          <mxGeometry x="190" y="160" width="60" height="30" as="geometry" />
        </mxCell>
        <mxCell id="Up-AibJq6kQblU-nqdXv-4" value="" style="rounded=0;whiteSpace=wrap;html=1;" vertex="1" parent="1">
          <mxGeometry x="280" y="160" width="60" height="30" as="geometry" />
        </mxCell>
        <mxCell id="Up-AibJq6kQblU-nqdXv-6" value="&lt;span style=&quot;font-size: 18px;&quot;&gt;&lt;b&gt;GENDER :&lt;/b&gt;&lt;/span&gt;" style="text;html=1;align=center;verticalAlign=middle;whiteSpace=wrap;rounded=0;" vertex="1" parent="1">
          <mxGeometry x="102.5" y="210" width="265" height="30" as="geometry" />
        </mxCell>
        <mxCell id="Up-AibJq6kQblU-nqdXv-8" value="&lt;font style=&quot;font-size: 18px;&quot;&gt;&lt;b&gt;HEIGHT :&lt;/b&gt;&lt;/font&gt;" style="text;html=1;align=center;verticalAlign=middle;whiteSpace=wrap;rounded=0;" vertex="1" parent="1">
          <mxGeometry x="190" y="260" width="90" height="30" as="geometry" />
        </mxCell>
        <mxCell id="Up-AibJq6kQblU-nqdXv-9" value="" style="rounded=0;whiteSpace=wrap;html=1;" vertex="1" parent="1">
          <mxGeometry x="282.5" y="260" width="60" height="30" as="geometry" />
        </mxCell>
        <mxCell id="Up-AibJq6kQblU-nqdXv-10" value="&lt;font style=&quot;font-size: 18px;&quot;&gt;&lt;b&gt;WEIGHT :&lt;/b&gt;&lt;/font&gt;" style="text;html=1;align=center;verticalAlign=middle;whiteSpace=wrap;rounded=0;" vertex="1" parent="1">
          <mxGeometry x="190" y="310" width="90" height="30" as="geometry" />
        </mxCell>
        <mxCell id="Up-AibJq6kQblU-nqdXv-11" value="" style="rounded=0;whiteSpace=wrap;html=1;" vertex="1" parent="1">
          <mxGeometry x="282.5" y="310" width="60" height="30" as="geometry" />
        </mxCell>
        <mxCell id="Up-AibJq6kQblU-nqdXv-12" value="&lt;font style=&quot;font-size: 18px;&quot;&gt;&lt;b&gt;ACTIVITY LEVEL :&lt;/b&gt;&lt;/font&gt;" style="text;html=1;align=center;verticalAlign=middle;whiteSpace=wrap;rounded=0;" vertex="1" parent="1">
          <mxGeometry x="190" y="360" width="160" height="30" as="geometry" />
        </mxCell>
        <mxCell id="Up-AibJq6kQblU-nqdXv-15" value="&lt;font style=&quot;font-size: 18px;&quot;&gt;&lt;b&gt;CALCULATE&amp;nbsp;&lt;/b&gt;&lt;/font&gt;" style="rounded=1;arcSize=10;whiteSpace=wrap;html=1;align=center;fillColor=light-dark(#FFFFFF,#6D6D6D);" vertex="1" parent="1">
          <mxGeometry x="250" y="460" width="210" height="50" as="geometry" />
        </mxCell>
        <mxCell id="Up-AibJq6kQblU-nqdXv-16" value="&lt;font style=&quot;font-size: 18px;&quot;&gt;&lt;b&gt;CLEAR&lt;/b&gt;&lt;/font&gt;" style="rounded=1;arcSize=10;whiteSpace=wrap;html=1;align=center;fillColor=light-dark(#FFFFFF,#CCCCCC);" vertex="1" parent="1">
          <mxGeometry x="470" y="460" width="90" height="50" as="geometry" />
        </mxCell>
        <mxCell id="Up-AibJq6kQblU-nqdXv-17" value="" style="line;strokeWidth=1;rotatable=0;dashed=0;labelPosition=right;align=left;verticalAlign=middle;spacingTop=0;spacingLeft=6;points=[];portConstraint=eastwest;" vertex="1" parent="1">
          <mxGeometry x="150" y="130" width="480" height="10" as="geometry" />
        </mxCell>
        <mxCell id="Up-AibJq6kQblU-nqdXv-18" value="&lt;font style=&quot;font-size: 24px;&quot;&gt;&lt;b&gt;CALORIE CALCULATOR&lt;/b&gt;&lt;/font&gt;" style="text;html=1;align=center;verticalAlign=middle;whiteSpace=wrap;rounded=0;" vertex="1" parent="1">
          <mxGeometry x="210" y="90" width="360" height="30" as="geometry" />
        </mxCell>
        <mxCell id="Up-AibJq6kQblU-nqdXv-31" value="" style="html=1;shadow=0;dashed=0;align=center;verticalAlign=middle;shape=mxgraph.arrows2.arrow;dy=0.6;dx=40;flipH=1;notch=0;" vertex="1" parent="1">
          <mxGeometry x="170" y="90" width="64" height="30" as="geometry" />
        </mxCell>
        <mxCell id="Up-AibJq6kQblU-nqdXv-33" value="&lt;font style=&quot;font-size: 18px;&quot;&gt;SEDANTER&lt;/font&gt;" style="whiteSpace=wrap;html=1;align=center;" vertex="1" parent="1">
          <mxGeometry x="162.5" y="400" width="120" height="30" as="geometry" />
        </mxCell>
        <mxCell id="Up-AibJq6kQblU-nqdXv-34" value="&lt;font style=&quot;font-size: 18px;&quot;&gt;ACTIVE&lt;/font&gt;" style="whiteSpace=wrap;html=1;align=center;" vertex="1" parent="1">
          <mxGeometry x="294" y="400" width="86" height="30" as="geometry" />
        </mxCell>
        <mxCell id="Up-AibJq6kQblU-nqdXv-35" value="&lt;font style=&quot;font-size: 18px;&quot;&gt;VERY ACTIVE&lt;/font&gt;" style="whiteSpace=wrap;html=1;align=center;" vertex="1" parent="1">
          <mxGeometry x="390" y="400" width="130" height="30" as="geometry" />
        </mxCell>
        <mxCell id="Up-AibJq6kQblU-nqdXv-36" value="&lt;font style=&quot;font-size: 18px;&quot;&gt;ATHLETE&lt;/font&gt;" style="whiteSpace=wrap;html=1;align=center;" vertex="1" parent="1">
          <mxGeometry x="530" y="400" width="86" height="30" as="geometry" />
        </mxCell>
        <mxCell id="Up-AibJq6kQblU-nqdXv-39" value="&lt;span style=&quot;font-size: 18px;&quot;&gt;&lt;b&gt;CALCULATED CALORIE&amp;nbsp;&lt;/b&gt;&lt;/span&gt;" style="rounded=1;arcSize=10;whiteSpace=wrap;html=1;align=center;fillColor=light-dark(#FFFFFF,#6D6D6D);" vertex="1" parent="1">
          <mxGeometry x="250" y="520" width="210" height="50" as="geometry" />
        </mxCell>
        <mxCell id="Up-AibJq6kQblU-nqdXv-40" value="" style="rounded=1;arcSize=10;whiteSpace=wrap;html=1;align=center;fillColor=light-dark(#FFFFFF,#FFFFFF);" vertex="1" parent="1">
          <mxGeometry x="470" y="520" width="90" height="50" as="geometry" />
        </mxCell>
        <mxCell id="Up-AibJq6kQblU-nqdXv-44" value="&lt;font style=&quot;font-size: 18px;&quot;&gt;MALE&lt;/font&gt;" style="whiteSpace=wrap;html=1;align=center;" vertex="1" parent="1">
          <mxGeometry x="283.75" y="210" width="66.25" height="30" as="geometry" />
        </mxCell>
        <mxCell id="Up-AibJq6kQblU-nqdXv-45" value="&lt;font style=&quot;font-size: 18px;&quot;&gt;FEMALE&lt;/font&gt;" style="whiteSpace=wrap;html=1;align=center;" vertex="1" parent="1">
          <mxGeometry x="356.88" y="210" width="83.12" height="30" as="geometry" />
        </mxCell>
        <mxCell id="Up-AibJq6kQblU-nqdXv-46" value="" style="shape=table;startSize=0;container=1;collapsible=1;childLayout=tableLayout;fixedRows=1;rowLines=0;fontStyle=0;align=center;resizeLast=1;strokeColor=none;fillColor=none;collapsible=0;whiteSpace=wrap;html=1;" vertex="1" parent="1">
          <mxGeometry x="520" y="620" width="180" height="30" as="geometry" />
        </mxCell>
        <mxCell id="Up-AibJq6kQblU-nqdXv-47" value="" style="shape=tableRow;horizontal=0;startSize=0;swimlaneHead=0;swimlaneBody=0;fillColor=none;collapsible=0;dropTarget=0;points=[[0,0.5],[1,0.5]];portConstraint=eastwest;top=0;left=0;right=0;bottom=0;" vertex="1" parent="Up-AibJq6kQblU-nqdXv-46">
          <mxGeometry width="180" height="30" as="geometry" />
        </mxCell>
        <mxCell id="Up-AibJq6kQblU-nqdXv-48" value="" style="shape=partialRectangle;connectable=0;fillColor=none;top=0;left=0;bottom=0;right=0;editable=1;overflow=hidden;" vertex="1" parent="Up-AibJq6kQblU-nqdXv-47">
          <mxGeometry width="30" height="30" as="geometry">
            <mxRectangle width="30" height="30" as="alternateBounds" />
          </mxGeometry>
        </mxCell>
        <mxCell id="Up-AibJq6kQblU-nqdXv-49" value="" style="shape=partialRectangle;connectable=0;fillColor=none;top=0;left=0;bottom=0;right=0;align=left;spacingLeft=6;overflow=hidden;" vertex="1" parent="Up-AibJq6kQblU-nqdXv-47">
          <mxGeometry x="30" width="150" height="30" as="geometry">
            <mxRectangle width="150" height="30" as="alternateBounds" />
          </mxGeometry>
        </mxCell>
        <mxCell id="Up-AibJq6kQblU-nqdXv-55" value="&lt;font style=&quot;font-size: 24px;&quot;&gt;home&lt;/font&gt;" style="whiteSpace=wrap;html=1;align=center;" vertex="1" parent="1">
          <mxGeometry x="353.75" y="615" width="72.5" height="40" as="geometry" />
        </mxCell>
        <mxCell id="Up-AibJq6kQblU-nqdXv-57" value="" style="line;strokeWidth=1;rotatable=0;dashed=0;labelPosition=right;align=left;verticalAlign=middle;spacingTop=0;spacingLeft=6;points=[];portConstraint=eastwest;" vertex="1" parent="1">
          <mxGeometry x="150" y="600" width="480" height="10" as="geometry" />
        </mxCell>
      </root>
    </mxGraphModel>
  </diagram>
</mxfile>
